PathFileType	4	(X/Y/Z)	Static.trc																																																																									
DataRate	CameraRate	NumFrames	NumMarkers	Units	OrigDataRate	OrigDataStartFrame	OrigNumFrames																																																																					
100	100	13	25	mm	100	413	473																																																																					
Frame#	Time	AA			AI			Ant_Sh			CV7			GH			LAH			Lat_Sh			LCAJ			LPH			Post_Sh			RAH			RCAJ			RHLE			RHME			RPH			RUA			SJN			SXS			TS			TV8			centelbow			centpxt8			centijc7			centLPHRPH			ScapulaThoracicContactPt		
		X1	Y1	Z1	X2	Y2	Z2	X3	Y3	Z3	X4	Y4	Z4	X5	Y5	Z5	X6	Y6	Z6	X7	Y7	Z7	X8	Y8	Z8	X9	Y9	Z9	X10	Y10	Z10	X11	Y11	Z11	X12	Y12	Z12	X13	Y13	Z13	X14	Y14	Z14	X15	Y15	Z15	X16	Y16	Z16	X17	Y17	Z17	X18	Y18	Z18	X19	Y19	Z19	X20	Y20	Z20	X21	Y21	Z21	X22	Y22	Z22	X23	Y23	Z23	X24	Y24	Z24	X25	Y25	Z25
																																																																												
414	4.13	-219.4621429	1527.393433	715.0154419	-267.7591248	1355.894409	647.4655151	-106.1742249	1498.329712	721.605957	-217.5087128	1594.512451	518.1911011	-163.4060059	1495.096069	717.8065186	4.531187057	1771.315918	484.5065308	-166.6425781	1514.234619	750.2718506	-158.7628479	1557.056763	338.0029602	-204.1232147	1725.278198	461.14505	-245.263855	1490.471069	712.3723145	-8.900635719	1771.284058	579.0413818	-162.1982269	1559.876343	687.9641113	-172.3761749	1234.984985	851.7426147	-117.108757	1180.220825	757.7406006	-206.3266296	1726.945313	576.6732788	-221.0059662	1339.349976	758.9416504	-54.84733963	1506.155518	521.0203247	4.622129917	1333.086182	522.5960693	-271.1978149	1497.384888	604.3984985	-235.4385223	1306.678589	516.2119141	-144.742466	1207.602905	804.7416077	-115.4081962	1319.882385	519.4039917	-136.1780262	1550.333984	519.6057129	-205.2249222	1726.111755	518.9091644	-252.8063609	1460.224243	655.6264852
415	4.14	-219.4401703	1527.420654	715.0056763	-267.8182373	1355.888062	647.4970703	-106.2197571	1498.349731	721.611145	-217.547226	1594.579346	518.1333008	-163.4084473	1495.114258	717.8080444	4.521324635	1771.263794	484.513092	-166.6479797	1514.205933	750.2801514	-158.7822571	1557.022827	338.0073242	-204.1841278	1725.230469	461.180481	-245.3201599	1490.480225	712.3608398	-9.038217545	1771.318848	579.0722656	-162.2435608	1559.887817	687.9485474	-172.4082947	1234.872437	851.7069092	-117.1057358	1180.22168	757.732666	-206.3768311	1726.945435	576.6974487	-221.0516357	1339.327637	758.9144287	-54.84976959	1506.168945	521.0228882	4.613624096	1333.118408	522.6205444	-271.256012	1497.378662	604.3841553	-235.5654907	1306.719849	516.1759644	-144.7570152	1207.547058	804.7197876	-115.4759333	1319.919128	519.3982544	-136.1984978	1550.374146	519.5780945	-205.2804794	1726.087952	518.9389648	-252.8381399	1460.229126	655.6289673
416	4.15	-219.4398956	1527.421631	715.0054932	-267.8121033	1355.932007	647.4976196	-106.2390289	1498.33313	721.6008911	-217.5252991	1594.573853	518.1109009	-163.4817963	1495.129639	717.8234863	4.587553978	1771.292236	484.6143188	-166.6932373	1514.232544	750.288147	-158.7663574	1557.057251	338.0079956	-204.1385803	1725.218506	461.1555786	-245.3404083	1490.548462	712.4215698	-9.038187027	1771.318848	579.0723877	-162.2562714	1559.92749	687.9485474	-172.3669128	1234.948242	851.7097778	-117.1085815	1180.220825	757.7404785	-206.3734589	1726.941772	576.6970215	-221.0059814	1339.349976	758.9416504	-54.89434433	1506.172729	521.0212402	4.615870953	1333.141357	522.6309204	-271.2546082	1497.39502	604.3878784	-235.6179047	1306.685547	516.2041016	-144.7377472	1207.584534	804.7251282	-115.5010169	1319.913452	519.417511	-136.2098217	1550.373291	519.5660706	-205.2560196	1726.080139	518.9263	-252.8355357	1460.249552	655.6303304
417	4.16	-219.4472351	1527.413696	714.9558716	-267.8656921	1355.919922	647.5287476	-106.2148895	1498.366943	721.6137695	-217.5481873	1594.537842	518.1834106	-163.4702301	1495.132202	717.8224487	4.504388809	1771.317993	484.5506287	-166.6979828	1514.201538	750.2967529	-158.7706909	1557.030151	338.0086975	-204.1725464	1725.256836	461.1751709	-245.315155	1490.508301	712.402771	-9.016288757	1771.318481	579.1132202	-162.269577	1559.924561	687.9529419	-172.4113464	1234.875122	851.7249146	-117.1055527	1180.22168	757.7325439	-206.3829498	1726.947144	576.7015381	-221.0446625	1339.360596	758.9090576	-54.88604736	1506.192749	521.0505371	4.612023354	1333.145752	522.6022339	-271.2706299	1497.414185	604.3966064	-235.5641785	1306.700562	516.1711426	-144.7584496	1207.548401	804.7287292	-115.4760776	1319.923157	519.3866882	-136.2171173	1550.365295	519.6169739	-205.2777481	1726.10199	518.9383545	-252.8611857	1460.249268	655.6270752
418	4.17	-219.5091858	1527.408691	715.041687	-267.8670044	1355.903809	647.5247803	-106.2653046	1498.356445	721.6230469	-217.546402	1594.554199	518.177124	-163.481369	1495.129639	717.8393555	4.572484016	1771.290894	484.6777039	-166.7020416	1514.168335	750.3056641	-158.7745819	1557.052612	338.0108643	-204.1670837	1725.289673	461.1745911	-245.3431549	1490.512939	712.4259644	-9.016257286	1771.318481	579.1133423	-162.2706604	1559.924683	687.9535522	-172.3561554	1234.868286	851.7312012	-117.1306305	1180.224976	757.7195435	-206.4224243	1726.957886	576.723999	-221.094696	1339.377441	758.9354248	-54.85959625	1506.179199	521.0394287	4.606404781	1333.161133	522.6293945	-271.3068542	1497.416138	604.4157715	-235.6600189	1306.7146	516.1771851	-144.7433929	1207.546631	804.7253723	-115.5268071	1319.937866	519.4032898	-136.2029991	1550.366699	519.6082764	-205.294754	1726.123779	518.949295	-252.8943481	1460.242879	655.6607463
419	4.18	-219.4983063	1527.448486	715.0375366	-267.8678284	1355.903076	647.5252075	-106.2701721	1498.344238	721.6299438	-217.5850372	1594.584229	518.1599121	-163.4613953	1495.12854	717.8339233	4.384356499	1771.293701	484.5378723	-166.6913757	1514.205444	750.3363647	-158.7760468	1557.085205	338.011322	-204.1589203	1725.319214	461.170105	-245.3882141	1490.522095	712.3960571	-9.016144753	1771.274414	579.1654663	-162.2414703	1559.919556	687.9876099	-172.346283	1234.915649	851.6918335	-117.129097	1180.226074	757.7125854	-206.422348	1726.957886	576.723877	-221.0944672	1339.37793	758.9354248	-54.93577194	1506.172485	521.0649414	4.57865715	1333.16394	522.5742188	-271.3236389	1497.419189	604.4204102	-235.6517639	1306.728638	516.1669922	-144.73769	1207.570862	804.7022095	-115.5365534	1319.946289	519.3706055	-136.2604046	1550.378357	519.6124268	-205.2906342	1726.13855	518.946991	-252.8965912	1460.256917	655.6610514
420	4.19	-219.5454102	1527.463501	715.0637817	-267.9149475	1355.919312	647.552063	-106.2635651	1498.353027	721.6196899	-217.6095581	1594.547485	518.1704102	-163.5172882	1495.118896	717.8255005	4.467668533	1771.267944	484.6013489	-166.7479401	1514.197021	750.3133545	-158.847168	1557.088379	337.9998474	-204.1703644	1725.292725	461.1756287	-245.3321075	1490.497437	712.4036255	-9.10545826	1771.301636	579.2182617	-162.3127747	1559.897095	687.9760132	-172.3655243	1234.930298	851.7416992	-117.0656815	1180.266113	757.6958008	-206.4222412	1726.958008	576.7237549	-221.1007385	1339.34668	758.9407959	-54.90343857	1506.22229	521.036377	4.567605972	1333.194214	522.6034546	-271.3222961	1497.419922	604.4199829	-235.6970367	1306.728271	516.1898193	-144.7156029	1207.598206	804.71875	-115.5647154	1319.961243	519.396637	-136.2564983	1550.384888	519.6033936	-205.2963028	1726.125366	518.9496918	-252.9275513	1460.267578	655.6786092
421	4.2	-219.4984741	1527.447876	715.0376587	-267.9143372	1355.9198	647.5517578	-106.3134155	1498.326782	721.6404419	-217.6346283	1594.578857	518.1903076	-163.4677582	1495.116699	717.8547363	4.467735767	1771.267944	484.6012573	-166.6913605	1514.205444	750.3363647	-158.8152771	1557.078979	338.0302124	-204.2688141	1725.252808	461.1824646	-245.3604889	1490.516968	712.430542	-9.042161942	1771.28125	579.1853027	-162.3140717	1559.897095	687.9764404	-172.3869171	1234.858521	851.7331543	-117.1274261	1180.22583	757.7114868	-206.435379	1726.929932	576.7315674	-221.099411	1339.326782	758.9363403	-54.98372269	1506.211426	521.0337524	4.5627985	1333.182373	522.59198	-271.328125	1497.391357	604.4237671	-235.7928925	1306.742188	516.1958618	-144.7571716	1207.542175	804.7223206	-115.615047	1319.96228	519.3939209	-136.3091755	1550.395142	519.61203	-205.3520966	1726.09137	518.957016	-252.9136454	1460.253011	655.6710612
422	4.21	-219.545166	1527.464478	715.0635986	-267.9659729	1355.958496	647.5831909	-106.317955	1498.360718	721.6450806	-217.6510925	1594.580811	518.1913452	-163.512207	1495.139893	717.8416138	4.655986309	1771.265015	484.7409058	-166.7434387	1514.17749	750.309021	-158.8129425	1557.098267	338.0328979	-204.2011871	1725.383179	461.1983032	-245.393631	1490.528809	712.3963623	-9.068201065	1771.288208	579.2050781	-162.302002	1559.895996	688.0149536	-172.3627319	1234.858643	851.7302856	-117.1273575	1180.22583	757.7113647	-206.4272461	1726.975586	576.7307129	-221.0623322	1339.335449	758.9733276	-54.98750687	1506.213623	521.0797729	4.523663521	1333.155762	522.6077881	-271.3216248	1497.420044	604.4196167	-235.7944794	1306.760864	516.2006836	-144.7450447	1207.542236	804.7208252	-115.6354079	1319.958313	519.4042358	-136.3192997	1550.397217	519.6355591	-205.3142166	1726.179382	518.9645081	-252.9442546	1460.281006	655.6888021
423	4.22	-219.5338593	1527.452637	715.0578003	-267.98703	1355.991943	647.6019897	-106.3075867	1498.398193	721.6246948	-217.6843872	1594.6073	518.15271	-163.5309143	1495.162964	717.8516846	4.353007793	1771.192871	484.5315857	-166.7472992	1514.194946	750.3136597	-158.8646698	1557.095093	338.0090942	-204.1557159	1725.371216	461.1733704	-245.3985291	1490.534424	712.4536743	-9.153546333	1771.265015	579.2486572	-162.3265228	1559.894165	687.9802856	-172.324173	1234.915039	851.7235718	-117.0880051	1180.264526	757.7502441	-206.4700012	1726.990112	576.753479	-221.055603	1339.367798	758.9680176	-54.98102188	1506.273071	521.0752563	4.511798859	1333.169312	522.6148071	-271.3986511	1497.439697	604.4133301	-235.8800049	1306.771362	516.1917114	-144.706089	1207.589783	804.736908	-115.684103	1319.970337	519.4032593	-136.3327045	1550.440186	519.6139832	-205.3128586	1726.180664	518.9634247	-252.9731801	1460.294759	655.69104
424	4.23	-219.5453949	1527.463623	715.0637817	-268.0039368	1355.980225	647.6021729	-106.3216324	1498.385376	721.6463623	-217.6876984	1594.612671	518.1549072	-163.5789795	1495.153198	717.8614502	4.629123688	1771.26709	484.7850952	-166.8012085	1514.20813	750.3348389	-158.8900757	1557.101929	338.0288696	-204.2003937	1725.382813	461.199707	-245.3964844	1490.534668	712.4530029	-8.956618309	1771.260254	579.1940918	-162.3361359	1559.926758	687.9801636	-172.3510284	1234.973511	851.7310181	-117.0675812	1180.2677	757.6960449	-206.4692535	1727.021362	576.7540283	-221.1051636	1339.385742	758.9943848	-54.99733353	1506.24646	521.0517578	4.47039175	1333.181885	522.6306763	-271.3686523	1497.434448	604.4465942	-235.8784637	1306.752686	516.1868896	-144.7093048	1207.620605	804.7135315	-115.704036	1319.967285	519.408783	-136.3425159	1550.429565	519.6033325	-205.3348236	1726.202087	518.9768677	-252.9726613	1460.292765	655.7041829
425	4.24	-219.5451202	1527.4646	715.0635376	-268.0472717	1356.04895	647.628479	-106.3627853	1498.418335	721.6404419	-217.6769409	1594.585449	518.1953735	-163.5440979	1495.187988	717.8806152	4.646296501	1771.212769	484.7472534	-166.7517853	1514.214355	750.3179932	-158.8993378	1557.122925	338.0320435	-204.2451019	1725.394287	461.2260437	-245.3838196	1490.564575	712.4994507	-9.105239868	1771.257446	579.2706299	-162.3273315	1559.935181	688.0337524	-172.366333	1234.962158	851.6867676	-117.1387863	1180.235474	757.7047729	-206.4658356	1727.0177	576.7536011	-221.1051636	1339.385742	758.9943848	-55.01654053	1506.26001	521.072998	4.459084034	1333.215942	522.6312866	-271.3847656	1497.438599	604.451355	-235.8415833	1306.778442	516.2283936	-144.7525597	1207.598816	804.6957703	-115.6912496	1319.997192	519.4298401	-136.3467407	1550.422729	519.6341858	-205.3554687	1726.205994	518.9898224	-252.9923859	1460.317383	655.7144572
426	4.25	-219.5705414	1527.505737	715.0803223	-268.0370483	1356.006104	647.6303711	-106.3217392	1498.388916	721.6456299	-217.6992798	1594.598267	518.1644897	-163.5413361	1495.159058	717.8892822	4.607552528	1771.218384	484.7723083	-166.7470398	1514.245361	750.3093872	-158.8536835	1557.12146	338.0553589	-204.2027588	1725.402466	461.2052002	-245.4132385	1490.537598	712.5145264	-8.982335091	1771.266846	579.2145996	-162.3695374	1559.953003	688.0075684	-172.310379	1234.953979	851.7196045	-117.1678925	1180.255737	757.6958618	-206.4657288	1727.0177	576.753479	-221.111908	1339.353271	758.9996948	-55.05263901	1506.254028	521.071167	4.452258587	1333.237793	522.625061	-271.4570313	1497.474365	604.4404297	-235.9273682	1306.788452	516.2193604	-144.7391357	1207.604858	804.7077332	-115.7375548	1320.013123	519.4222107	-136.3759594	1550.426147	519.6178284	-205.3342438	1726.210083	518.9793396	-253.0215403	1460.328735	655.717041
